<?xml version="1.0" encoding="UTF-8"?>
<svg version="1.1" xmlns="http://www.w3.org/2000/svg" width="500" height="500">
<path d="M0 0 C165 0 330 0 500 0 C500 165 500 330 500 500 C335 500 170 500 0 500 C0 335 0 170 0 0 Z " fill="#000000" transform="translate(0,0)"/>
<path d="M0 0 C109.03843897 0 109.03843897 0 128.8125 18.3125 C138.47401265 28.73676364 142.65999153 41.64872688 142.47045898 55.68823242 C141.90613598 69.02280886 136.61745436 80.93936516 126.9375 90.1875 C121.19360767 95.00399305 114.58390261 98.47859547 108 102 C108.66644531 102.1959375 109.33289063 102.391875 110.01953125 102.59375 C123.62468606 107.00828974 133.71143481 115.40710825 140.28051758 128.0234375 C144.62347264 136.61053402 146.18035891 143.09524104 146.1875 152.75 C146.19974609 153.6059375 146.21199219 154.461875 146.22460938 155.34375 C146.25790978 169.99592762 141.03059153 181.87316065 130.82421875 192.4609375 C97.15625924 222.72950414 36.10230524 210 0 210 C0 140.7 0 71.4 0 0 Z " fill="#CAE664" transform="translate(280,152)"/>
<path d="M0 0 C27 0 27 0 32.11328125 4.62890625 C33.13253469 6.72583741 34.09261208 8.85229308 35 11 C36.42008958 13.20921559 37.8632811 15.36949784 39.35546875 17.52734375 C40.14014204 18.71922326 40.92071102 19.91381326 41.69750977 21.11083984 C44.36767942 25.21466522 47.04678887 29.31259721 49.7265625 33.41015625 C50.21683426 34.16043091 50.70710602 34.91070557 51.2122345 35.68371582 C57.17405263 44.80422417 63.1701224 53.90215842 69.16714478 62.99954224 C71.01135184 65.79740274 72.85472122 68.59581369 74.69799805 71.39428711 C80.09705616 79.58791617 85.50720883 87.77362627 90.95703125 95.93359375 C97.8938135 106.32027878 104.75825435 116.75443647 111.625 127.1875 C113.50975413 130.05091393 115.394679 132.91421475 117.28012085 135.7771759 C118.43826099 137.53576955 119.59603752 139.29460276 120.75332642 141.05375671 C125.80438753 148.72379081 130.90541578 156.35812367 136 164 C136.33 109.88 136.66 55.76 137 0 C146.24 0 155.48 0 165 0 C165 69.3 165 138.6 165 210 C137 210 137 210 130.91015625 204.984375 C129.49169261 202.57236573 128.26899847 200.25563836 127.0625 197.75 C126.31238099 196.4104188 125.54999978 195.07764604 124.77685547 193.7512207 C123.07409677 190.81568772 121.42122713 187.8583265 119.78857422 184.88330078 C115.17250855 176.63330662 109.77340319 168.86262987 104.51419067 161.01486206 C101.36920129 156.30807211 98.26567322 151.57407467 95.15625 146.84375 C88.84816317 137.26775358 82.4963726 127.72146654 76.125 118.1875 C67.65844376 105.51619571 59.31065319 92.77505366 51 80 C43.41 68.45 35.82 56.9 28 45 C27.67 99.45 27.34 153.9 27 210 C18.09 210 9.18 210 0 210 C0 140.7 0 71.4 0 0 Z " fill="#CAE764" transform="translate(82,152)"/>
<path d="M0 0 C7.899375 -0.061875 15.79875 -0.12375 23.9375 -0.1875 C26.3930835 -0.21481201 28.84866699 -0.24212402 31.37866211 -0.27026367 C50.62560202 -0.39418251 68.00346047 -0.19678443 82.7265625 13.484375 C90.98365407 22.62108801 91.6591909 33.11691845 91.17041016 44.84765625 C90.55907003 52.56910976 86.63269509 58.44781208 81.40625 63.95703125 C70.73552883 73.01675069 58.71379295 74.30652292 45.3125 74.1953125 C44.16072266 74.19329834 43.00894531 74.19128418 41.82226562 74.18920898 C37.54813617 74.17879937 33.2740638 74.15087705 29 74.125 C14.645 74.063125 14.645 74.063125 0 74 C0 49.58 0 25.16 0 0 Z " fill="#000100" transform="translate(308,265)"/>
<path d="M0 0 C8.848125 -0.061875 17.69625 -0.12375 26.8125 -0.1875 C29.58374268 -0.21481201 32.35498535 -0.24212402 35.21020508 -0.27026367 C37.43830939 -0.27903605 39.66641855 -0.2866782 41.89453125 -0.29296875 C43.02580444 -0.30831665 44.15707764 -0.32366455 45.32263184 -0.33947754 C57.03646321 -0.34328526 68.70450024 2.04086903 77.6875 10 C84.9923051 17.90795414 86.74532761 27.07845196 86.359375 37.57421875 C85.391783 46.79789465 80.82379045 53.82609435 74 60 C63.63881172 68.00637276 51.6251086 68.1582737 39.0625 68.09765625 C38.06798828 68.09664917 37.07347656 68.09564209 36.04882812 68.09460449 C32.36587353 68.08940813 28.6829355 68.0754471 25 68.0625 C16.75 68.041875 8.5 68.02125 0 68 C0 45.56 0 23.12 0 0 Z " fill="#010100" transform="translate(308,175)"/>
</svg>
