<?xml version="1.0" encoding="UTF-8"?>
<svg version="1.1" xmlns="http://www.w3.org/2000/svg" width="500" height="500">
<path d="M0 0 C165 0 330 0 500 0 C500 165 500 330 500 500 C335 500 170 500 0 500 C0 335 0 170 0 0 Z " fill="#000000" transform="translate(0,0)"/>
<path d="M0 0 C9.24 0 18.48 0 28 0 C28 23.1 28 46.2 28 70 C37.466875 69.9175 46.93375 69.835 56.6875 69.75 C59.64936279 69.73420898 62.61122559 69.71841797 65.6628418 69.70214844 C68.04998664 69.6727429 70.43711452 69.64191079 72.82421875 69.609375 C74.0316272 69.60824707 75.23903564 69.60711914 76.48303223 69.60595703 C88.30082334 69.41016779 99.89725391 66.98099354 109 59 C115.8235743 51.77151031 118.57253545 43.97309311 118.4375 34.125 C118.42847656 33.33488525 118.41945313 32.54477051 118.41015625 31.73071289 C118.11220187 21.66544135 114.94302829 15.23174908 108.0390625 7.9140625 C105.51659515 5.54622916 102.9603253 3.77619518 100 2 C100 1.67 100 1.34 100 1 C104.71347738 0.72664966 109.42229439 0.52790516 114.1418457 0.39575195 C115.74390012 0.34065356 117.34540664 0.26573895 118.94555664 0.17016602 C124.14995847 -0.13273568 128.90394847 -0.20577402 134 1 C137.53957337 4.20580371 139.23522813 7.61448009 141 12 C141.78717306 13.62718152 142.57791993 15.25264847 143.375 16.875 C146.0956275 23.0969568 146.18255098 29.05892846 146.1875 35.75 C146.19974609 36.6059375 146.21199219 37.461875 146.22460938 38.34375 C146.25790978 52.99592762 141.03059153 64.87316065 130.82421875 75.4609375 C112.89655933 91.57847363 91.22241613 93.32437685 68.359375 93.1953125 C66.60433072 93.19236541 64.84928468 93.19032908 63.09423828 93.18920898 C56.64613174 93.17879883 50.19806303 93.15087652 43.75 93.125 C29.3125 93.08375 14.875 93.0425 0 93 C0 62.31 0 31.62 0 0 Z " fill="#C9E564" transform="translate(280,269)"/>
<path d="M0 0 C13.014375 -0.04125 26.02875 -0.0825 39.4375 -0.125 C43.51150146 -0.14320801 47.58550293 -0.16141602 51.78295898 -0.18017578 C56.84777832 -0.18920898 56.84777832 -0.18920898 59.23622131 -0.19088745 C60.86631876 -0.19391204 62.49641242 -0.20084611 64.1264801 -0.21115112 C87.65002536 -0.35212532 110.66665083 1.50786576 128.8125 18.3125 C138.49198521 28.75615509 142.6015314 41.62216255 142.48144531 55.6706543 C142.17662619 63.56457292 140.41799995 71.37300008 136 78 C133.20263672 78.34057617 133.20263672 78.34057617 129.6796875 78.29296875 C128.42285156 78.28330078 127.16601562 78.27363281 125.87109375 78.26367188 C123.89302734 78.2259668 123.89302734 78.2259668 121.875 78.1875 C120.53517097 78.17245483 119.19532596 78.15876613 117.85546875 78.14648438 C114.56991158 78.11102872 111.28515418 78.06160849 108 78 C109.05582929 74.72692919 110.15224809 71.67793673 111.625 68.5625 C114.68827838 60.30428044 114.05340056 50.72796901 111.0625 42.5625 C107.6292539 35.34587506 102.46673119 30.85717742 95.5 27.125 C86.96270958 24.38087094 79.04981608 23.67510404 70.08984375 23.5859375 C69.0177063 23.56829346 67.94556885 23.55064941 66.84094238 23.5324707 C62.87327492 23.46986839 58.90536659 23.42336206 54.9375 23.375 C41.6034375 23.189375 41.6034375 23.189375 28 23 C28 41.48 28 59.96 28 79 C18.76 79 9.52 79 0 79 C0 52.93 0 26.86 0 0 Z " fill="#C9E564" transform="translate(280,152)"/>
<path d="M0 0 C9.24 0 18.48 0 28 0 C28 30.69 28 61.38 28 93 C0 93 0 93 -6.08984375 87.984375 C-7.50877737 85.57203274 -8.73180261 83.2564001 -9.9375 80.75 C-10.67963206 79.42218914 -11.43394023 78.10112563 -12.19897461 76.78637695 C-13.44765005 74.63073449 -14.68295826 72.47225528 -15.88154602 70.2882843 C-21.06232336 60.85009939 -27.14184139 52.00387204 -33.134552 43.06921387 C-36.20973197 38.47272643 -39.24828345 33.85232129 -42.28515625 29.23046875 C-42.85288254 28.36688751 -43.42060883 27.50330627 -44.00553894 26.61355591 C-47.8053827 20.82918198 -51.59755939 15.039857 -55.37109375 9.23828125 C-55.84217056 8.51730759 -56.31324738 7.79633392 -56.79859924 7.05351257 C-60 2.1162253 -60 2.1162253 -60 1 C-55.50167618 0.67862695 -51.00630841 0.48461595 -46.5 0.3125 C-45.2315625 0.22033203 -43.963125 0.12816406 -42.65625 0.03320312 C-33.50115228 -0.22905228 -33.50115228 -0.22905228 -29.73046875 2.8581543 C-27.99175166 5.20636733 -26.49354903 7.59304902 -25.0715332 10.14395142 C-23.42008983 13.00448725 -21.55650466 15.71578329 -19.71447754 18.45605469 C-17.10550227 22.34209091 -14.55935857 26.26857359 -12 30.1875 C-8.37 35.735625 -4.74 41.28375 -1 47 C-0.67 31.49 -0.34 15.98 0 0 Z " fill="#C8E563" transform="translate(219,269)"/>
<path d="M0 0 C27 0 27 0 32.0859375 4.5859375 C33.1120887 6.69820541 34.08041921 8.83920543 35 11 C36.44275196 13.36746476 38.02996565 15.63080611 39.6015625 17.9140625 C40.42362113 19.16457153 41.24165285 20.41773583 42.0559082 21.67333984 C42.4745816 22.31728699 42.893255 22.96123413 43.32461548 23.62469482 C43.75374237 24.28479553 44.18286926 24.94489624 44.625 25.625 C46.46277415 28.44406268 48.30304668 31.26148483 50.14453125 34.078125 C50.61660507 34.80039276 51.08867889 35.52266052 51.57505798 36.26681519 C55.10287206 41.65428124 58.67276942 47.01247745 62.26171875 52.359375 C62.77085815 53.11870331 63.27999756 53.87803162 63.80456543 54.66036987 C65.7985219 57.63320603 67.79290049 60.60569866 69.79644775 63.57208252 C71.17676596 65.61579231 72.55169808 67.66303264 73.92578125 69.7109375 C74.3403508 70.32088562 74.75492035 70.93083374 75.18205261 71.55926514 C78 75.77298273 78 75.77298273 78 78 C69.19473379 80.07598329 58.43818763 82.26539388 50 78 C40.05635319 69.81962211 33.90518561 56.13549286 28 45 C27.67 55.89 27.34 66.78 27 78 C18.09 78 9.18 78 0 78 C0 52.26 0 26.52 0 0 Z " fill="#CCE965" transform="translate(82,152)"/>
<path d="M0 0 C8.91 0 17.82 0 27 0 C27 30.36 27 60.72 27 92 C18.09 92 9.18 92 0 92 C0 61.64 0 31.28 0 0 Z " fill="#CCE965" transform="translate(82,270)"/>
<path d="M0 0 C9.24 0 18.48 0 28 0 C28 26.07 28 52.14 28 79 C18.76 79 9.52 79 0 79 C0 52.93 0 26.86 0 0 Z " fill="#C7E363" transform="translate(219,152)"/>
<path d="M0 0 C10.125 0 10.125 0 14 3 C13.51171875 6.02734375 13.51171875 6.02734375 13.0234375 9.0546875 C13.01570313 9.69664062 13.00796875 10.33859375 13 11 C13.66 11.66 14.32 12.32 15 13 C14.8125 16 14.8125 16 14 19 C9.43362969 22.04424687 5.43284541 21.12783166 0 21 C0 14.07 0 7.14 0 0 Z " fill="#B1CA58" transform="translate(260,238)"/>
<path d="M0 0 C10.34625323 -0.36950904 10.34625323 -0.36950904 13.3359375 1.3203125 C15 3 15 3 15.375 6.0625 C15 9 15 9 13 11 C13.37083833 14.4117126 14.10858176 17.68901795 15 21 C14.01 21 13.02 21 12 21 C11.01 18.03 10.02 15.06 9 12 C7.02 12 5.04 12 3 12 C3 14.97 3 17.94 3 21 C2.01 21 1.02 21 0 21 C0 14.07 0 7.14 0 0 Z " fill="#AFC857" transform="translate(352,238)"/>
<path d="M0 0 C1.89355469 0.26806641 1.89355469 0.26806641 4 1 C5.00488281 2.62646484 5.00488281 2.62646484 5.703125 4.7109375 C5.9609375 5.46117187 6.21875 6.21140625 6.484375 6.984375 C6.73703125 7.77328125 6.9896875 8.5621875 7.25 9.375 C7.518125 10.15617188 7.78625 10.93734375 8.0625 11.7421875 C9.15562725 14.99926054 10 17.53649703 10 21 C9.01 21 8.02 21 7 21 C6.67 19.68 6.34 18.36 6 17 C3.03 16.67 0.06 16.34 -3 16 C-3.33 17.65 -3.66 19.3 -4 21 C-4.99 21 -5.98 21 -7 21 C-6.38169051 15.97525707 -4.87023224 11.75279506 -2.9375 7.125 C-2.65583984 6.43664062 -2.37417969 5.74828125 -2.08398438 5.0390625 C-1.39484734 3.35710091 -0.69819202 1.67822303 0 0 Z " fill="#B3CC59" transform="translate(289,238)"/>
<path d="M0 0 C1.89355469 0.26806641 1.89355469 0.26806641 4 1 C5.00488281 2.62646484 5.00488281 2.62646484 5.703125 4.7109375 C5.9609375 5.46117187 6.21875 6.21140625 6.484375 6.984375 C6.73703125 7.77328125 6.9896875 8.5621875 7.25 9.375 C7.518125 10.15617188 7.78625 10.93734375 8.0625 11.7421875 C9.15562725 14.99926054 10 17.53649703 10 21 C9.01 21 8.02 21 7 21 C6.67 19.68 6.34 18.36 6 17 C3.03 16.67 0.06 16.34 -3 16 C-3.33 17.65 -3.66 19.3 -4 21 C-4.99 21 -5.98 21 -7 21 C-6.38169051 15.97525707 -4.87023224 11.75279506 -2.9375 7.125 C-2.65583984 6.43664062 -2.37417969 5.74828125 -2.08398438 5.0390625 C-1.39484734 3.35710091 -0.69819202 1.67822303 0 0 Z " fill="#B3CC59" transform="translate(220,238)"/>
<path d="M0 0 C0.99 0 1.98 0 3 0 C3 6.93 3 13.86 3 21 C-2.04574923 19.73856269 -2.53470277 18.23672061 -5.25 13.9375 C-5.95640625 12.83277344 -6.6628125 11.72804687 -7.390625 10.58984375 C-7.92171875 9.73519531 -8.4528125 8.88054687 -9 8 C-9.33 12.29 -9.66 16.58 -10 21 C-10.99 21 -11.98 21 -13 21 C-13 14.4 -13 7.8 -13 1 C-7.95425077 2.26143731 -7.46529723 3.76327939 -4.75 8.0625 C-4.04359375 9.16722656 -3.3371875 10.27195313 -2.609375 11.41015625 C-2.07828125 12.26480469 -1.5471875 13.11945313 -1 14 C-0.67 9.38 -0.34 4.76 0 0 Z " fill="#A3B951" transform="translate(147,238)"/>
<path d="M0 0 C0.99 0 1.98 0 3 0 C4.17192435 3.12305373 5.33663876 6.24874739 6.5 9.375 C6.83386719 10.26445312 7.16773438 11.15390625 7.51171875 12.0703125 C7.82753906 12.92109375 8.14335937 13.771875 8.46875 14.6484375 C8.90864258 15.82672119 8.90864258 15.82672119 9.35742188 17.02880859 C10 19 10 19 10 21 C9.01 21 8.02 21 7 21 C6.67 19.35 6.34 17.7 6 16 C4.54052295 16.06006078 3.08220728 16.1488689 1.625 16.25 C0.81289063 16.29640625 0.00078125 16.3428125 -0.8359375 16.390625 C-3.18838927 16.7922092 -3.18838927 16.7922092 -4.2890625 19.046875 C-4.52367187 19.69140625 -4.75828125 20.3359375 -5 21 C-5.66 21 -6.32 21 -7 21 C-6.36591429 16.30920682 -5.11470488 12.13263233 -3.5 7.6875 C-2.83484375 5.83705078 -2.83484375 5.83705078 -2.15625 3.94921875 C-1 1 -1 1 0 0 Z " fill="#B4CE5A" transform="translate(334,238)"/>
<path d="M0 0 C4.95 0 9.9 0 15 0 C15 0.99 15 1.98 15 3 C13.02 3 11.04 3 9 3 C9 8.94 9 14.88 9 21 C8.01 21 7.02 21 6 21 C6 15.06 6 9.12 6 3 C4.02 3 2.04 3 0 3 C0 2.01 0 1.02 0 0 Z " fill="#B1CA58" transform="translate(170,238)"/>
<path d="M0 0 C0.99 0 1.98 0 3 0 C4.32 2.31 5.64 4.62 7 7 C9.77000825 3.67913229 9.77000825 3.67913229 12 0 C12.99 0 13.98 0 15 0 C14.01784611 2.64426047 13.08359776 4.88296313 11.4375 7.1875 C9.33575885 11.29960225 9.25684107 15.43885688 9 20 C8.01 20 7.02 20 6 20 C5.98582031 19.3709375 5.97164062 18.741875 5.95703125 18.09375 C5.62767506 12.18314167 4.53739198 8.40296682 1.05859375 3.59375 C0 2 0 2 0 0 Z " fill="#B6D05A" transform="translate(191,239)"/>
<path d="M0 0 C0.99 0 1.98 0 3 0 C3 6.27 3 12.54 3 19 C6.3 19 9.6 19 13 19 C13 19.66 13 20.32 13 21 C8.71 21 4.42 21 0 21 C0 14.07 0 7.14 0 0 Z " fill="#B3CD59" transform="translate(307,238)"/>
<path d="M0 0 C0.99 0 1.98 0 3 0 C3 6.93 3 13.86 3 21 C2.01 21 1.02 21 0 21 C0 14.07 0 7.14 0 0 Z " fill="#ADC656" transform="translate(159,238)"/>
<path d="M0 0 C6.15234375 -0.09765625 6.15234375 -0.09765625 8 0 C9 1 9 1 9.0625 3.5625 C9.041875 4.366875 9.02125 5.17125 9 6 C6.04335481 7.4783226 3.25770263 7.06032783 0 7 C0 4.69 0 2.38 0 0 Z " fill="#060703" transform="translate(355,241)"/>
<path d="M0 0 C3.375 -0.125 3.375 -0.125 7 0 C7.66 0.66 8.32 1.32 9 2 C8.75 4.0625 8.75 4.0625 8 6 C5.29120665 7.35439668 2.99066732 7.06501451 0 7 C0 4.69 0 2.38 0 0 Z " fill="#090A04" transform="translate(263,250)"/>
<path d="M0 0 C1.32 0.33 2.64 0.66 4 1 C3.84660156 1.50015625 3.69320312 2.0003125 3.53515625 2.515625 C2.80542604 5.90327766 2.63643523 9.29961519 2.4375 12.75 C2.39431641 13.44738281 2.35113281 14.14476562 2.30664062 14.86328125 C2.20110404 16.57531922 2.1001009 18.28763561 2 20 C1.34 20 0.68 20 0 20 C0 13.4 0 6.8 0 0 Z " fill="#CBE865" transform="translate(134,239)"/>
<path d="M0 0 C2.31 0 4.62 0 7 0 C7.38218767 1.65614657 7.71395102 3.32457024 8 5 C7 6 7 6 3.4375 6.0625 C2.303125 6.041875 1.16875 6.02125 0 6 C0 4.02 0 2.04 0 0 Z " fill="#020201" transform="translate(263,241)"/>
<path d="M0 0 C2.6855594 2.6855594 3.06049974 5.37621328 4 9 C1.69 9 -0.62 9 -3 9 C-2.01 6.03 -1.02 3.06 0 0 Z " fill="#15180A" transform="translate(335,242)"/>
<path d="M0 0 C2.50298434 2.93828597 3.46930939 5.17902761 4 9 C1.69 9 -0.62 9 -3 9 C-2.01 6.03 -1.02 3.06 0 0 Z " fill="#16190B" transform="translate(290,242)"/>
<path d="M0 0 C2.50298434 2.93828597 3.46930939 5.17902761 4 9 C1.69 9 -0.62 9 -3 9 C-2.01 6.03 -1.02 3.06 0 0 Z " fill="#16190B" transform="translate(221,242)"/>
<path d="M0 0 C0.99 0 1.98 0 3 0 C3.33 1.32 3.66 2.64 4 4 C3.01 4.33 2.02 4.66 1 5 C-0.22520264 8.00847418 -0.22520264 8.00847418 -1 11 C-1.99 11 -2.98 11 -4 11 C-3.5247412 9.35303396 -3.04468109 7.70745272 -2.5625 6.0625 C-2.29566406 5.14597656 -2.02882813 4.22945312 -1.75390625 3.28515625 C-1 1 -1 1 0 0 Z " fill="#ACC555" transform="translate(334,238)"/>
<path d="M0 0 C0.33 0 0.66 0 1 0 C1 6.6 1 13.2 1 20 C0.01 19.67 -0.98 19.34 -2 19 C-3.1875 16.4375 -3.1875 16.4375 -4 14 C-2.68 14.33 -1.36 14.66 0 15 C0 10.05 0 5.1 0 0 Z " fill="#C5E162" transform="translate(148,239)"/>
<path d="M0 0 C1.32 0.33 2.64 0.66 4 1 C4.33 2.65 4.66 4.3 5 6 C2.69 6.33 0.38 6.66 -2 7 C-1.125 2.25 -1.125 2.25 0 0 Z " fill="#A9C154" transform="translate(289,238)"/>
<path d="M0 0 C1.32 0.33 2.64 0.66 4 1 C4.33 2.65 4.66 4.3 5 6 C2.69 6.33 0.38 6.66 -2 7 C-1.125 2.25 -1.125 2.25 0 0 Z " fill="#A9C154" transform="translate(220,238)"/>
<path d="M0 0 C1 1 1 1 1.0625 4.0625 C1.041875 5.031875 1.02125 6.00125 1 7 C-2 5 -2 5 -3 2 C-5.64 1.67 -8.28 1.34 -11 1 C-11 0.67 -11 0.34 -11 0 C-3.4137931 -1.31299735 -3.4137931 -1.31299735 0 0 Z " fill="#ADC556" transform="translate(366,240)"/>
<path d="M0 0 C0.99 0.33 1.98 0.66 3 1 C4.1875 4.0625 4.1875 4.0625 5 7 C4.01 7 3.02 7 2 7 C0.5393715 4.35261084 0 3.10551666 0 0 Z " fill="#B7D15B" transform="translate(362,252)"/>
</svg>
